# xmcd CD database file
#
# Track frame offsets:
#	150
#	34932
#	83527
#	108850
#	142752
#	174782
#	205265
#	236982
#	256602
#
# Disc length: 4083 seconds
#
# Revision: 2
# Processed by: cddbd v1.5.2PL0 Copyright (c) Steve Scherf et al.
# Submitted via: CDex 1.70beta2
#
DISCID=650ff109
DTITLE=Dino Pacifici - The Journey
DYEAR=1997
DGENRE=New Age
TTITLE0=The Journey
TTITLE1=Earth Song Trilogy
TTITLE2=Cirrostratus
TTITLE3=Cascades (mvt I and II)
TTITLE4=Reverie
TTITLE5=Voices in the Mist
TTITLE6=Submergence
TTITLE7=An Afternoon in My Neighbourhood
TTITLE8=Rainforest Rhapsody
EXTD=YEAR: 1997
EXTT0=
EXTT1=
EXTT2=
EXTT3=
EXTT4=
EXTT5=
EXTT6=
EXTT7=
EXTT8=
PLAYORDER=
